<?xml version="1.0" encoding="UTF-8" standalone="no"?>
<!DOCTYPE svg PUBLIC "-//W3C//DTD SVG 1.1//EN" "http://www.w3.org/Graphics/SVG/1.1/DTD/svg11.dtd">
<svg xmlns="http://www.w3.org/2000/svg" version="1.1" viewBox="0 0 300 390" width="300.0pt" height="390.0pt">
<path d="M 0.00 0.00 L 300.00 0.00 L 300.00 390.00 L 0.00 390.00 L 0.00 0.00 Z" fill="none" />
<path d="M 155.54 17.62 C 162.20 18.91 168.65 22.20 174.54 25.47 C 189.51 33.66 203.84 42.97 218.76 51.25 C 232.33 58.93 247.31 66.48 259.80 75.86 C 256.64 77.22 253.78 79.00 250.84 80.78 C 237.78 88.77 224.59 96.56 211.51 104.53 C 203.80 99.82 195.83 95.48 187.96 91.02 C 179.56 86.16 171.32 80.82 162.77 76.21 C 159.12 74.28 155.21 72.51 151.01 72.44 C 147.40 72.35 143.77 73.72 140.32 74.71 C 140.63 67.14 140.34 59.58 140.43 52.00 C 140.42 40.84 140.68 29.69 140.47 18.54 C 145.56 17.52 150.33 16.63 155.54 17.62 Z" fill="#1df1e1" />
<path d="M 140.33 19.47 C 140.62 35.99 140.30 52.52 140.41 69.04 C 140.21 70.89 140.75 73.79 139.00 74.96 C 136.61 76.99 133.61 78.44 130.88 79.96 C 125.72 82.72 120.89 85.96 115.82 88.87 C 107.59 93.67 99.07 98.01 90.94 102.98 C 86.94 105.50 82.87 108.18 80.35 112.30 C 78.00 116.00 77.52 120.72 77.28 125.00 C 61.02 116.13 44.96 106.89 28.73 97.97 C 29.42 94.20 30.18 90.37 31.94 86.93 C 34.81 81.27 40.18 76.87 45.30 73.30 C 51.31 69.23 57.56 65.47 63.84 61.83 C 80.07 52.82 96.20 43.62 112.17 34.14 C 121.41 28.72 130.21 23.18 140.33 19.47 Z" fill="#c9fd76" />
<path d="M 259.80 75.86 C 263.72 78.93 267.56 82.84 269.68 87.39 C 273.10 95.12 273.51 104.68 273.41 113.00 C 273.34 138.00 273.25 163.00 273.40 188.00 C 273.42 195.19 273.62 202.27 272.47 209.40 C 258.97 201.93 245.50 194.41 232.04 186.88 C 229.21 185.29 226.33 183.80 223.37 182.45 C 223.45 164.64 223.33 146.81 223.42 129.00 C 223.38 124.31 223.41 118.94 221.39 114.61 C 219.26 110.08 215.62 107.18 211.51 104.53 C 224.59 96.56 237.78 88.77 250.84 80.78 C 253.78 79.00 256.64 77.22 259.80 75.86 Z" fill="#9c00ff" />
<path d="M 28.73 97.97 C 44.96 106.89 61.02 116.13 77.28 125.00 C 77.35 141.00 77.35 156.99 77.15 172.99 C 77.25 179.33 76.93 186.79 79.34 192.74 C 81.44 197.68 85.50 200.44 89.97 203.02 C 81.74 207.15 74.12 212.52 66.15 217.15 C 58.02 222.35 49.90 226.37 42.46 232.34 C 39.36 229.53 36.31 226.54 33.80 223.18 C 30.74 219.01 29.54 214.23 28.69 209.21 C 27.47 201.74 27.80 194.54 27.77 187.00 C 27.85 164.00 27.88 141.00 27.76 118.00 C 27.77 111.38 27.55 104.49 28.73 97.97 Z" fill="#8986ff" />
<path d="M 152.25 110.11 C 155.25 112.84 157.76 115.75 161.58 117.42 C 171.90 122.05 182.74 121.37 193.64 119.82 C 194.36 127.16 194.15 134.61 194.01 141.97 C 192.80 156.85 189.40 171.36 180.73 183.75 C 174.57 192.31 166.29 199.59 156.39 203.45 C 154.20 204.24 152.26 205.05 149.95 204.13 C 138.81 200.21 129.06 192.21 122.68 182.30 C 114.23 170.03 111.11 154.67 110.01 140.05 C 110.06 133.09 109.47 126.47 111.00 119.62 C 121.54 121.61 132.53 121.84 142.57 117.56 C 146.54 115.89 149.18 112.96 152.25 110.11 Z" fill="#202a33" />
<path d="M 152.69 115.61 C 155.29 117.91 157.14 120.38 160.43 121.77 C 170.14 125.67 179.61 125.39 189.85 124.93 C 190.44 139.45 189.58 153.69 184.29 167.37 C 184.28 159.87 185.67 152.51 185.69 145.01 C 185.83 139.83 185.29 134.71 184.36 129.62 C 176.36 129.51 167.97 128.58 161.28 123.77 C 158.30 121.76 156.08 118.97 153.34 116.73 C 152.84 116.31 152.36 116.34 151.89 116.82 C 148.38 119.84 145.52 123.13 141.38 125.38 C 134.73 129.06 126.82 129.71 119.39 130.31 C 118.99 138.54 118.41 146.38 119.36 154.62 C 120.00 160.91 121.44 167.01 122.46 173.24 C 115.43 158.32 113.48 141.10 114.68 124.80 C 119.48 125.14 124.25 125.39 129.05 125.08 C 137.93 124.40 146.37 122.30 152.69 115.61 Z" fill="#ffffff" />
<path d="M 153.34 116.73 C 156.08 118.97 158.30 121.76 161.28 123.77 C 167.97 128.58 176.36 129.51 184.36 129.62 C 185.29 134.71 185.83 139.83 185.69 145.01 C 185.67 152.51 184.28 159.87 184.29 167.37 C 181.80 174.70 177.90 181.89 172.36 187.37 C 166.97 193.01 159.84 198.72 152.08 200.43 C 151.94 191.17 152.01 181.91 152.02 172.65 C 156.04 172.59 160.06 172.60 164.08 172.65 C 162.87 168.23 161.02 163.64 160.73 159.06 C 161.33 154.98 163.15 151.84 161.38 147.67 C 159.76 143.51 156.11 142.09 152.00 141.35 C 152.08 133.17 151.97 125.00 151.89 116.82 C 152.36 116.34 152.84 116.31 153.34 116.73 Z" fill="#8986ff" />
<path d="M 151.89 116.82 C 151.97 125.00 152.08 133.17 152.00 141.35 C 147.89 141.95 144.32 143.67 142.61 147.66 C 140.59 151.98 143.26 155.53 143.38 159.74 C 142.84 164.16 141.19 168.49 139.99 172.77 C 144.00 172.75 148.01 172.75 152.02 172.65 C 152.01 181.91 151.94 191.17 152.08 200.43 C 138.63 196.28 128.38 185.72 122.46 173.24 C 121.44 167.01 120.00 160.91 119.36 154.62 C 118.41 146.38 118.99 138.54 119.39 130.31 C 126.82 129.71 134.73 129.06 141.38 125.38 C 145.52 123.13 148.38 119.84 151.89 116.82 Z" fill="#72f5a9" />
<path d="M 152.00 141.35 C 156.11 142.09 159.76 143.51 161.38 147.67 C 163.15 151.84 161.33 154.98 160.73 159.06 C 161.02 163.64 162.87 168.23 164.08 172.65 C 160.06 172.60 156.04 172.59 152.02 172.65 C 148.01 172.75 144.00 172.75 139.99 172.77 C 141.19 168.49 142.84 164.16 143.38 159.74 C 143.26 155.53 140.59 151.98 142.61 147.66 C 144.32 143.67 147.89 141.95 152.00 141.35 Z" fill="#202a33" />
<path d="M 157.10 149.01 C 159.16 152.38 156.29 154.76 155.41 157.87 C 155.98 161.36 157.19 164.75 158.08 168.17 C 154.11 168.16 150.13 168.16 146.16 168.18 C 147.04 164.82 148.25 161.48 148.77 158.04 C 148.34 154.89 145.20 152.88 146.96 149.34 C 149.19 145.22 154.61 145.04 157.10 149.01 Z" fill="#ffffff" />
<path d="M 223.37 182.45 C 226.33 183.80 229.21 185.29 232.04 186.88 C 245.50 194.41 258.97 201.93 272.47 209.40 C 271.57 214.60 270.02 219.55 266.85 223.84 C 261.99 230.77 253.74 235.19 246.71 239.70 C 234.76 246.86 222.35 253.27 210.37 260.38 C 195.04 269.26 179.92 279.62 163.80 286.86 C 163.58 274.36 163.60 261.84 163.30 249.34 C 163.08 243.19 162.59 237.06 162.69 230.90 C 166.33 229.23 169.81 227.28 173.25 225.25 C 185.30 234.39 196.30 244.99 208.78 253.51 C 208.39 243.63 206.97 233.78 205.98 223.95 C 205.55 218.96 204.41 213.84 204.62 208.84 C 204.62 207.30 205.75 206.75 206.79 205.86 C 211.19 202.54 217.24 200.02 220.18 195.21 C 222.73 191.27 223.10 187.02 223.37 182.45 Z" fill="#72f5a9" />
<path d="M 89.97 203.02 C 104.23 211.06 118.47 219.12 132.57 227.45 C 137.84 230.36 143.81 234.32 149.99 234.36 C 154.69 234.58 158.52 232.72 162.69 230.90 C 162.59 237.06 163.08 243.19 163.30 249.34 C 163.60 261.84 163.58 274.36 163.80 286.86 C 158.64 289.01 153.25 290.26 147.64 289.64 C 140.02 288.85 132.41 284.80 125.70 281.27 C 113.13 274.39 101.00 266.63 88.57 259.47 C 78.37 253.62 68.06 247.96 57.82 242.17 C 52.60 239.14 47.25 236.02 42.46 232.34 C 49.90 226.37 58.02 222.35 66.15 217.15 C 74.12 212.52 81.74 207.15 89.97 203.02 Z" fill="#039e99" />
<path d="M 41.34 328.54 C 52.16 328.47 62.97 328.47 73.79 328.52 C 73.79 332.21 73.77 335.90 73.75 339.59 C 70.08 339.58 66.41 339.62 62.73 339.65 C 62.86 351.85 62.82 364.06 62.75 376.27 C 59.28 376.21 55.81 376.07 52.34 375.90 C 52.39 363.82 52.25 351.73 52.41 339.65 C 48.74 339.61 45.06 339.62 41.38 339.58 C 41.36 335.90 41.33 332.22 41.34 328.54 Z" fill="#039e99" />
<path d="M 83.17 328.81 C 86.56 328.32 90.47 327.99 93.78 329.00 C 95.28 332.23 95.93 335.92 96.86 339.35 C 100.03 351.51 103.40 363.61 106.55 375.76 C 103.02 375.92 99.48 376.13 95.94 376.22 C 93.54 367.37 91.36 358.36 88.24 349.73 C 85.69 358.40 83.40 367.15 81.05 375.89 C 77.48 376.06 73.95 376.05 70.37 375.88 C 73.57 363.65 76.89 351.45 80.11 339.23 C 81.05 335.77 81.72 332.09 83.17 328.81 Z" fill="#039e99" />
<path d="M 109.62 328.56 C 116.77 328.48 123.93 328.42 131.09 328.50 C 136.18 328.49 141.10 330.77 143.82 335.16 C 145.63 337.82 145.96 340.83 145.85 343.97 C 146.14 350.95 139.71 357.27 132.91 357.72 C 128.83 357.97 124.72 357.77 120.64 357.77 C 120.64 363.82 120.63 369.86 120.63 375.90 C 116.97 376.07 113.34 376.11 109.68 375.93 C 109.63 360.14 109.75 344.35 109.62 328.56 Z" fill="#039e99" />
<path d="M 161.94 328.63 C 167.20 328.28 172.51 328.56 177.78 328.53 C 177.78 332.22 177.76 335.91 177.73 339.60 C 172.56 339.73 167.26 339.23 162.13 339.87 C 158.88 340.89 158.80 344.65 161.56 346.43 C 165.91 347.46 171.66 346.18 176.14 347.90 C 180.38 349.43 183.43 353.05 184.73 357.30 C 186.40 362.15 184.74 367.67 181.45 371.45 C 178.48 374.72 174.38 375.94 170.07 376.08 C 162.95 376.28 155.79 376.22 148.69 375.76 C 148.77 372.25 148.77 368.74 148.70 365.23 C 154.49 365.13 160.27 365.20 166.06 365.22 C 168.45 365.18 171.17 365.24 173.39 364.28 C 174.83 362.69 174.87 360.28 173.53 358.61 C 169.25 357.07 164.04 358.40 159.62 357.28 C 155.90 356.29 152.65 353.60 150.71 350.31 C 148.96 347.36 148.99 343.48 149.32 340.17 C 150.14 333.91 155.78 329.20 161.94 328.63 Z" fill="#039e99" />
<path d="M 198.35 328.53 C 202.03 328.50 205.71 328.51 209.39 328.58 C 209.46 344.32 209.46 360.07 209.40 375.81 C 205.72 375.90 202.04 375.91 198.36 375.92 C 198.34 360.12 198.37 344.33 198.35 328.53 Z" fill="#039e99" />
<path d="M 225.99 328.49 C 229.43 328.46 232.66 330.35 235.90 330.70 C 239.24 330.12 242.48 328.27 246.02 328.51 C 251.17 328.98 255.88 332.19 258.05 336.91 C 259.73 340.54 259.55 344.11 259.57 348.00 C 259.50 357.35 259.61 366.71 259.47 376.06 C 255.86 376.13 252.26 376.10 248.66 375.91 C 248.58 365.31 248.72 354.71 248.64 344.11 C 248.68 341.86 247.67 339.29 245.00 339.58 C 242.19 339.30 241.27 341.72 241.27 344.09 C 241.18 354.80 241.30 365.54 241.26 376.26 C 237.65 376.17 234.04 375.96 230.43 375.84 C 230.37 365.54 230.46 355.24 230.42 344.94 C 230.34 342.40 230.07 339.78 226.95 339.57 C 223.91 339.46 222.86 341.19 222.70 344.00 C 222.50 354.63 222.73 365.29 222.64 375.92 C 218.97 375.91 215.30 375.91 211.63 375.81 C 211.57 365.85 211.61 355.89 211.57 345.94 C 211.51 342.40 212.14 338.95 213.90 335.85 C 216.27 331.46 221.06 328.69 225.99 328.49 Z" fill="#039e99" />
<path d="M 120.97 339.79 C 125.01 339.50 129.36 339.22 133.35 340.00 C 136.15 341.13 136.10 345.33 133.36 346.30 C 129.19 347.10 124.69 346.61 120.46 346.64 C 120.43 344.34 120.64 342.06 120.97 339.79 Z" fill="#ffffff" />
<path d="M 194.23 369.72 C 194.94 371.62 194.72 373.91 194.85 375.90 C 193.02 375.85 191.14 375.87 189.33 375.59 C 187.67 374.36 188.48 371.20 188.40 369.39 C 190.18 369.38 192.62 368.85 194.23 369.72 Z" fill="#039e99" />
</svg>